<svg id="Layer_1" data-name="Layer 1" xmlns="http://www.w3.org/2000/svg" viewBox="0 0 77.4 25.91"><defs><style>.cls-1{fill:#c4cbf5;}</style></defs><path class="cls-1" d="M87.72,26.68a5.46,5.46,0,0,1,1.06,8.64,6,6,0,0,1-4.16,1.56c-2.94,0-5.87,0-8.81,0l-.25,0V17a4.38,4.38,0,0,1,.5,0c2.61,0,5.21,0,7.81,0a6.44,6.44,0,0,1,4.89,1.81,5.11,5.11,0,0,1-.85,7.76A2.31,2.31,0,0,0,87.72,26.68ZM79.6,33.36c1.59,0,3.16.09,4.72,0A2.17,2.17,0,0,0,86.38,31a2.15,2.15,0,0,0-2-2.4c-1.57-.12-3.16,0-4.76,0Zm0-8.35c1.48,0,2.9,0,4.31,0a2.19,2.19,0,0,0,2.21-2.12,2,2,0,0,0-1.83-2.3c-1.55-.14-3.12,0-4.69,0Z" transform="translate(-39.6 -11)"/><path class="cls-1" d="M39.6,36.9V17a4.38,4.38,0,0,1,.51,0h7.81a7.86,7.86,0,0,1,3.65.85c3,1.56,3.77,6.62.38,8.71-.06,0-.11.09-.22.16a5,5,0,0,1,2.11,2,5.5,5.5,0,0,1-3.76,8,10,10,0,0,1-2,.21c-2.63,0-5.25,0-7.88,0Zm4-3.5h.57c1.32,0,2.64.05,4,0a2.28,2.28,0,0,0,2.27-2.45,2.35,2.35,0,0,0-2.38-2.37c-.66,0-1.32,0-2,0H43.63Zm0-8.38h4.26a2.22,2.22,0,0,0,2.24-2.27,2.18,2.18,0,0,0-2.2-2.24c-.62-.05-1.24,0-1.86,0H43.63Z" transform="translate(-39.6 -11)"/><path class="cls-1" d="M64.69,24.94l2-4.17c.52-1.11,1-2.21,1.55-3.33A.71.71,0,0,1,69,17c1.23,0,2.47,0,3.82,0L71.66,19.2c-1.59,3-3.2,6.08-4.78,9.12a2,2,0,0,0-.21.88c0,2.3,0,4.59,0,6.88v.78h-4v-.7c0-2.31,0-4.63,0-6.94a1.84,1.84,0,0,0-.2-.82c-2-3.78-4-7.56-6-11.43h2.1c.61,0,1.21,0,1.81,0a.63.63,0,0,1,.69.45l3.43,7.2C64.55,24.69,64.6,24.76,64.69,24.94Z" transform="translate(-39.6 -11)"/><path class="cls-1" d="M111.72,36.91h-4V20.49h-5.36V17H117v3.43h-5.29Z" transform="translate(-39.6 -11)"/><path class="cls-1" d="M98.78,31c-1.24,0-2.46,0-3.68,0-.12,0-.32-.26-.33-.41,0-.54,0-1.08,0-1.62V13.43c0-.54,0-1.08-.05-1.62,0-.7.08-.81.76-.81h2.79c.32,0,.57.06.57.52q0,9.59,0,19.18C98.81,30.77,98.8,30.82,98.78,31Z" transform="translate(-39.6 -11)"/></svg>