<svg id="Layer_1" data-name="Layer 1" xmlns="http://www.w3.org/2000/svg" viewBox="0 0 141.86 45.42"><defs><style>.cls-1{fill:#c4cbf5;}.cls-2{fill:#ddbd4e;}.cls-3{fill:#04041a;}.cls-4{fill:#bf9e39;}.cls-5{fill:#a97914;}.cls-6{fill:#050522;}.cls-7{fill:#0c0c4a;}.cls-8{fill:#c8a73d;}.cls-9{fill:#000001;}.cls-10{fill:#010103;}.cls-11{fill:#010105;}.cls-12{fill:none;}.cls-13{fill:#010104;}.cls-14{fill:#010107;}.cls-15{fill:#aa8a28;}.cls-16{fill:#030315;}.cls-17{fill:#171718;}.cls-18{fill:#b69530;}.cls-19{fill:#d4b245;}.cls-20{fill:#c2901d;}</style></defs><path class="cls-1" d="M72.35,13l1.31.94v.1c-.43,0-.86,0-1.29-.09a9.4,9.4,0,0,1-3.07-1.41,14.93,14.93,0,0,0-2.25-1.06c-.67-.24-.88,0-.9.68a16,16,0,0,1-.63,4.72,10.3,10.3,0,0,1-1,2c-1.15,2-2.29,4-3.48,5.95-.55.91-1.19,1.76-1.79,2.63-.1.16-.19.33-.28.49l-.18-.16.81-1.48s0,0,0,0,0,0,0,0l0,0c-.51.58-1,1.17-1.54,1.73a28,28,0,0,1-3.52,3.36,2.48,2.48,0,0,0-.62,1.18c-.27.81-.49,1.64-.71,2.47a.47.47,0,0,0,.12.4c1.38,1.13,2.77,2.24,4.17,3.35.57.45,1.17.88,1.75,1.32a4.28,4.28,0,0,0,2.18.86,2.49,2.49,0,0,0,1-.25,5,5,0,0,0,.63-.38.62.62,0,0,1,1,.32c.06.11.2.25.29.24a1,1,0,0,1,1,.56,1.08,1.08,0,0,0,.93.5c2,.23,4,.41,6,.71,1.82.27,3.62.65,5.42,1a5.58,5.58,0,0,1,.69.23V44a5.61,5.61,0,0,1-.71,0c-1.67-.21-3.33-.46-5-.64-1.1-.12-2.21-.17-3.31-.2-2.67-.07-5.35-.16-8-.15-1.66,0-3.33.17-5,.31s-3.49.31-5.23.54c-1.58.21-3.16.44-4.71.78-2.4.52-4.78,1.14-7.17,1.73-.32.07-.62.21-.94.3-.5.12-.75,0-.86-.52s-.2-1-.28-1.44a.68.68,0,0,1,.56-.83c1.79-.4,3.59-.79,5.39-1.15.83-.16,1.68-.24,2.52-.36a.47.47,0,0,0,.44-.43c.14-.68.36-.81,1-.7a1.51,1.51,0,0,0,1.49-.59.72.72,0,0,0,0-.92c-.87-1.4-1.76-2.8-2.65-4.2-.29-.46-.6-.91-.9-1.36,0,0,0,0,0,0l-.8-.6-.42.74-.27-.4-.62.24a4.37,4.37,0,0,1,.08-.56,5.52,5.52,0,0,0,.18-.53c0-.35.13-.93,0-1a1.4,1.4,0,0,0-1.47-.09,1.55,1.55,0,0,1-.81.26,5.52,5.52,0,0,0-2.59.68c-1.8.7-3.58,1.44-5.37,2.16-.29.12-.6.27-.65-.24l-1.42.4-.05-.11.23-.44,0,0h0s0,0,0,0c-.8.37-1.6.78-2.42,1.1a3.83,3.83,0,0,1-1.27.18c-.18,0-.37-.18-.56-.28a1,1,0,0,0-.29-.14c-.32-.09-.34-.3-.18-.52a1.69,1.69,0,0,1,.5-.46c.84-.46,1.69-.91,2.56-1.33a17.72,17.72,0,0,0,4.31-2.9c.93-.84,1.77-1.79,2.66-2.69a2.18,2.18,0,0,1,.31-.22c.42-.11.86-.19,1.27-.34s1.06-.45,1.59-.69l2.19-.95,1-.44c.23,0,.5.18.7.12a6.58,6.58,0,0,0,1-.55l.14-.06c.48-.25.95-.52,1.45-.73.67-.29,1.37-.51,2.05-.78a16.6,16.6,0,0,0,6.66-5.12,23.44,23.44,0,0,0,1.52-2.38l.43-.86.25-.61,0-.07,0,.07-.27.59-.52.79c-.58.77-1.13,1.59-1.77,2.32a21.15,21.15,0,0,1-9.2,5.85c-1,.34-2,.64-2.93,1v.06l.84-.1-.17.25-.34.08c-.51.24-1,.47-1.52.72s-1.06.55-1.6.83-1,.34-1.5.49a1.11,1.11,0,0,1-.37,0c-.13,0-.29-.06-.4,0a6.1,6.1,0,0,0-.58.36L35,28l.29-.62-.09-.06-.63.77a23.87,23.87,0,0,1-2.62,2.7l-.17-.1a3.8,3.8,0,0,1,.21-.7c.67-1.24,1.32-2.5,2.06-3.69.9-1.44,1.82-2.87,2.85-4.21S39,19.6,40.05,18.42c.47-.52,1.07-.91,1.56-1.41.69-.71,1.34-1.46,2-2.2.1-.11.11-.3.19-.43a8.67,8.67,0,0,1,2.93-3.17C48.57,10.08,50.47,9,52.39,8a19.44,19.44,0,0,0,3.72-2.64,1,1,0,0,0,.15-.18l-.17-.08L60.2,2.94l-.32-.22.82-.64-.07-.23h0a3,3,0,0,0,1.84-.27A5.59,5.59,0,0,1,68,2.66c.8.69,1.53,1.47,2.29,2.21a1.07,1.07,0,0,0,.36.28,11,11,0,0,1,4.16,2.92,6.47,6.47,0,0,1,1.65,3.82c-.21-.13-.36-.22-.5-.32-.51-.38-1-.77-1.52-1.13a1.93,1.93,0,0,0-.44-.18l-.53-.39v0l-.09-.08a.12.12,0,0,0-.08,0l-.19-.09h0l-.17-.1c0-.06,0-.15-.1-.18A6.57,6.57,0,0,0,70,8.34a1.09,1.09,0,0,0-1.1.53A1.08,1.08,0,0,0,69,10a7.32,7.32,0,0,0,1.84,2,1.12,1.12,0,0,0,.32.12l.71.64.36.14ZM31.15,34.43l0,0v0l0,0Zm2.34-2.68a3.39,3.39,0,0,0,.45-.15L38,29.35a1.73,1.73,0,0,1,.32-.11l-.15-.17-.18.08c-1.14.64-2.29,1.27-3.43,1.92-.37.21-.72.45-1.08.68l-.19.07.05.06ZM41.27,19.3a1.43,1.43,0,0,0,.28-.07c.59-.26,1.17-.55,1.77-.78s1.18-.38,1.84-.59a4.15,4.15,0,0,0-3.89,1.45h0Zm5.18-6.91c.13-.06.26-.1.39-.17,1.42-.72,2.8-1.55,4.27-2.13a12.68,12.68,0,0,0,3.08-1.48c.14-.11.3-.18.44-.27l1.09-.73a1.39,1.39,0,0,0-.22,0l-.87.27a33.21,33.21,0,0,0-6,2.85c-.77.48-1.46,1.1-2.19,1.66l0,0Zm-1.55,4.5a3.94,3.94,0,0,0,.49-.14l3-1.42.52-.27,0-.06-.83.07a.67.67,0,0,1,.34-.23l2.91-1.09c.23-.09.53-.15.57-.62l-1.59.36c1.44-.78,3-1.21,4.49-2.16a1.89,1.89,0,0,0-.36-.14,5.68,5.68,0,0,0-3.1.91c-1.55,1.09-3,2.27-4.56,3.41-.61.46-1.24.92-1.86,1.37l0,0Zm4.86,18.86a2.08,2.08,0,0,1,.06-1.93A1.91,1.91,0,0,0,50,32c-.25-.58-.62-.71-1.06-.27-.6.59-1.14,1.24-1.71,1.87s-.56.9-.11,1.59c.87,1.37,1.73,2.75,2.61,4.12a2.71,2.71,0,0,0,.86,1,7,7,0,0,0,2,.56A7.81,7.81,0,0,0,54,40.83c.3,0,.58.09.63.41s.22.41.5.36.61,0,.7-.16c.31-.51.74-.5,1.23-.46.31,0,.62,0,.93,0l.06-.21c-2.27-2-4.7-3.71-7.14-5.57l-.08.44L50,35.4ZM45.59,21.29l-.14-.09a11,11,0,0,0-3.26,2.5,7.91,7.91,0,0,0,2.66-.77.41.41,0,0,0,.22-.21C45.25,22.25,45.42,21.77,45.59,21.29ZM52.26,11.2l.08.12s.1,0,.15,0c.73-.2,1.48-.37,2.19-.62a5.61,5.61,0,0,0,1.21-.64c.14-.1.18-.36.26-.54-.21,0-.45-.16-.63-.1a15.57,15.57,0,0,0-2,.82A11.44,11.44,0,0,0,52.26,11.2Zm.81-1.46,0,.13a2.09,2.09,0,0,0,.36-.07L55.87,9A11,11,0,0,0,57,8.51a.57.57,0,0,0,.31-.39,1.68,1.68,0,0,0-.23-.58c-.15.07-.3.13-.44.21-.83.47-1.66,1-2.5,1.43C53.79,9.38,53.43,9.56,53.07,9.74ZM42.07,20a7.4,7.4,0,0,0-4.34,3.66ZM65.92,6.13a.77.77,0,0,0,.73-.71.82.82,0,0,0-.72-.64.77.77,0,0,0-.7.64A.77.77,0,0,0,65.92,6.13ZM51.56,41.76l0-.21c-.48,0-1-.12-1.45-.15a.43.43,0,0,0-.31.13.42.42,0,0,0-.11.29s.16.11.24.11Zm-5.09-21c-.78.34-.66,1.13-.9,1.75C46.3,22.16,46.19,21.37,46.47,20.77Zm1.05.45,1.25-1.34C48,19.9,47.6,20.31,47.52,21.22Zm-.17-.84c-.48.1-.9.94-.8,1.55A1.89,1.89,0,0,0,47.35,20.38ZM64.26,41.82c-.45-.43-.62-.44-.8-.08ZM59.8,26l0-.05,0,0s0,.05,0,.08Z" transform="translate(-26.07 -1.29)"/><path class="cls-1" d="M110,25c4.49-.29,8.77,3.79,8.72,8.62a8.71,8.71,0,1,1-17.4-.41C101.49,28.68,105.74,24.63,110,25Zm4.52,8.65c0-.42-.06-.86-.14-1.28A4.39,4.39,0,0,0,111.12,29a4.45,4.45,0,0,0-4.75,1.79,5.15,5.15,0,0,0-.48,4.91,4.43,4.43,0,0,0,5.68,2.54A4.71,4.71,0,0,0,114.55,33.66Z" transform="translate(-26.07 -1.29)"/><path class="cls-1" d="M133.69,26.94c.56-.38,1-.7,1.49-1a6.14,6.14,0,0,1,3.43-1A5.64,5.64,0,0,1,142,26a4.85,4.85,0,0,1,2.18,4c.08,3.78.07,7.57.09,11.35,0,.51-.1.6-.61.6h-3c-.41,0-.56-.13-.56-.55,0-2.64,0-5.27,0-7.91a16.07,16.07,0,0,0-.19-2.4,2.4,2.4,0,0,0-1.85-2.2,3,3,0,0,0-3.19,1,5.43,5.43,0,0,0-1.14,3.5c0,2.64,0,5.27,0,7.91,0,.62,0,.63-.62.63h-2.94c-.54,0-.59-.06-.59-.6q0-7.71,0-15.42c0-.43.12-.57.56-.56,1,0,2.1,0,3.15,0,.34,0,.47.11.45.45S133.69,26.49,133.69,26.94Z" transform="translate(-26.07 -1.29)"/><path class="cls-1" d="M92.15,42.34a8.94,8.94,0,0,1-5.61-1.68A8.37,8.37,0,0,1,83,33.81a8.23,8.23,0,0,1,2.72-6.43A8.62,8.62,0,0,1,91.57,25a11.66,11.66,0,0,1,4.31.48,9.41,9.41,0,0,1,3.87,2.8c.24.28.25.48-.12.67-.92.49-1.84,1-2.75,1.53-.3.17-.49,0-.68-.16a3.87,3.87,0,0,0-2.12-1.27c-2.41-.45-4.5-.25-6,1.85a4.63,4.63,0,0,0-.42,4.94,4.58,4.58,0,0,0,4.19,2.64,5.15,5.15,0,0,0,4.43-1.62.39.39,0,0,1,.6,0l2.56,1.75c.3.19.39.34.12.67a8.23,8.23,0,0,1-5.75,3Z" transform="translate(-26.07 -1.29)"/><path class="cls-1" d="M150.45,41.86c.58-.83,1.12-1.61,1.68-2.38L154.64,36c.58-.8,1.15-1.61,1.75-2.4a.6.6,0,0,0,0-.84c-1.62-2.22-3.23-4.45-4.84-6.67-.16-.22-.3-.45-.49-.73.21,0,.35,0,.49,0,1.32,0,2.65,0,4,0a.7.7,0,0,1,.65.32c.81,1.14,1.64,2.26,2.45,3.39a1.19,1.19,0,0,1,.09.15c.41.59.42.59.83,0,.87-1.19,1.74-2.39,2.62-3.58a.73.73,0,0,1,.44-.28c1.44,0,2.88,0,4.32,0a1,1,0,0,1,.24.06c-.34.47-.64.91-1,1.34q-3,4.14-6,8.26c-1.56,2.17-3.12,4.34-4.7,6.5a1,1,0,0,1-.66.39c-1.39,0-2.79,0-4.19,0A1.19,1.19,0,0,1,150.45,41.86Z" transform="translate(-26.07 -1.29)"/><path class="cls-1" d="M123.3,27.05c.1-.15.2-.3.31-.44a3.8,3.8,0,0,1,4.26-1.5c.57.17.61.26.4.82-.3.84-.61,1.68-.9,2.52-.12.35-.25.49-.65.32a1.68,1.68,0,0,0-2.24.82,6.2,6.2,0,0,0-.72,3.07c0,2.88,0,5.75,0,8.63,0,.44-.12.64-.56.64H120c-.26,0-.37-.13-.36-.37a2.25,2.25,0,0,0,0-.26V26c0-.62,0-.62.62-.62h1.86c1.08,0,1.08,0,1.08,1.06V27Z" transform="translate(-26.07 -1.29)"/><path class="cls-1" d="M146.21,33.62q0-3.85,0-7.69c0-.57,0-.57.57-.57,1,0,2.08,0,3.11,0,.37,0,.47.13.47.48q0,7.8,0,15.59c0,.39-.16.52-.51.51h-3.24c-.41,0-.41-.26-.41-.55C146.22,38.8,146.21,36.21,146.21,33.62Z" transform="translate(-26.07 -1.29)"/><path class="cls-1" d="M162.27,34.09l5.66,7.8c-.2,0-.33,0-.45,0h-3.76a1.25,1.25,0,0,1-1.15-.59c-.78-1.15-1.62-2.26-2.46-3.38a.71.71,0,0,1,0-1c.63-.76,1.16-1.6,1.74-2.41C162,34.39,162.1,34.28,162.27,34.09Z" transform="translate(-26.07 -1.29)"/><path class="cls-1" d="M148.28,18.61c1.35-.25,2.72,1.38,2.64,2.67A2.65,2.65,0,0,1,148.31,24a2.71,2.71,0,0,1-2.7-2.76C145.56,20,146.84,18.37,148.28,18.61Z" transform="translate(-26.07 -1.29)"/><path class="cls-2" d="M74.06,10.41l.21,1.12-.07.06-.26.45L73.15,12l.07-.33,0-.68.66-.19-.11-.45Z" transform="translate(-26.07 -1.29)"/><path class="cls-3" d="M39.37,26.31c-.53.24-1,.49-1.59.69s-.85.23-1.27.34v-.17a6.1,6.1,0,0,1,.58-.36c.11,0,.27,0,.4,0a1.11,1.11,0,0,0,.37,0c.5-.15,1-.32,1.5-.49Z" transform="translate(-26.07 -1.29)"/><path class="cls-4" d="M74.06,10.41l-.25-.11.11.45-.66.19L73,10.66V10.4l.49-.14,0-.39.53.39Z" transform="translate(-26.07 -1.29)"/><path class="cls-5" d="M73.94,12l.26-.45,0,0A1.68,1.68,0,0,1,72.74,13c-.13,0-.26,0-.39,0l-.13-.12a2,2,0,0,0,.49-.08c.33-.13.65-.28,1-.43Z" transform="translate(-26.07 -1.29)"/><path class="cls-6" d="M34.53,28l.63-.77.09.06L35,28h0l-.09.09Z" transform="translate(-26.07 -1.29)"/><polygon class="cls-7" points="32.26 27.01 32.27 26.98 32.28 27.01 32.26 27.01"/><polygon class="cls-7" points="34.56 0.55 34.54 0.54 34.56 0.56 34.56 0.55"/><path class="cls-7" d="M34.87,28,35,28Z" transform="translate(-26.07 -1.29)"/><path class="cls-8" d="M74.25,11.61l0,0,.07-.06Z" transform="translate(-26.07 -1.29)"/><path class="cls-9" d="M49.76,35.75,50,35.4l.82.22.08-.44c2.44,1.86,4.87,3.62,7.14,5.57L58,41c-.31,0-.62,0-.93,0-.49,0-.92,0-1.23.46-.09.14-.46.12-.7.16s-.45,0-.5-.36-.33-.42-.63-.41a7.81,7.81,0,0,1-1.44.07,7,7,0,0,1-2-.56,2.71,2.71,0,0,1-.86-1C48.85,38,48,36.57,47.12,35.2c-.45-.69-.44-1,.11-1.59s1.11-1.28,1.71-1.87c.44-.44.81-.31,1.06.27a1.91,1.91,0,0,1-.18,1.81A2.08,2.08,0,0,0,49.76,35.75Z" transform="translate(-26.07 -1.29)"/><path class="cls-10" d="M44.9,16.88c.62-.45,1.25-.91,1.86-1.37,1.52-1.14,3-2.32,4.56-3.41a5.68,5.68,0,0,1,3.1-.91,1.89,1.89,0,0,1,.36.14c-1.47.95-3.05,1.38-4.49,2.16l1.59-.36c0,.47-.34.53-.57.62L48.4,14.84a.67.67,0,0,0-.34.23l.83-.07,0,.06-.52.27-3,1.42a3.94,3.94,0,0,1-.49.14Z" transform="translate(-26.07 -1.29)"/><path class="cls-11" d="M56.14,15.42a23.44,23.44,0,0,1-1.52,2.38A16.6,16.6,0,0,1,48,22.92c-.68.27-1.38.49-2.05.78-.5.21-1,.48-1.45.73,0-.19,0-.31-.23-.25-.41.09-.83.16-1.24.24l-.84.1v-.06c1-.32,2-.62,2.93-1a21.15,21.15,0,0,0,9.2-5.85c.64-.73,1.19-1.55,1.77-2.32Z" transform="translate(-26.07 -1.29)"/><path class="cls-12" d="M71.15,12.12a1.12,1.12,0,0,1-.32-.12A7.32,7.32,0,0,1,69,10a1.08,1.08,0,0,1-.06-1.17A1.09,1.09,0,0,1,70,8.34a6.57,6.57,0,0,1,2.78,1.09s.06.12.1.18h-.43a1.62,1.62,0,0,0-1.64,1.56l.25.78Z" transform="translate(-26.07 -1.29)"/><path class="cls-13" d="M46.45,12.39c.73-.56,1.42-1.18,2.19-1.66a33.21,33.21,0,0,1,6-2.85l.87-.27a1.39,1.39,0,0,1,.22,0l-1.09.73c-.14.09-.3.16-.44.27a12.68,12.68,0,0,1-3.08,1.48c-1.47.58-2.85,1.41-4.27,2.13-.13.07-.26.11-.39.17Z" transform="translate(-26.07 -1.29)"/><path class="cls-10" d="M45.59,21.29c-.17.48-.34,1-.52,1.43a.41.41,0,0,1-.22.21,7.91,7.91,0,0,1-2.66.77,11,11,0,0,1,3.26-2.5Z" transform="translate(-26.07 -1.29)"/><path class="cls-10" d="M52.26,11.2a11.44,11.44,0,0,1,1.28-.95,15.57,15.57,0,0,1,2-.82c.18-.06.42.06.63.1-.08.18-.12.44-.26.54a5.61,5.61,0,0,1-1.21.64c-.71.25-1.46.42-2.19.62-.05,0-.1,0-.15,0Z" transform="translate(-26.07 -1.29)"/><path class="cls-13" d="M53.07,9.74c.36-.18.72-.36,1.07-.56.84-.47,1.67-1,2.5-1.43.14-.08.29-.14.44-.21a1.68,1.68,0,0,1,.23.58.57.57,0,0,1-.31.39A11,11,0,0,1,55.87,9l-2.39.85a2.09,2.09,0,0,1-.36.07Z" transform="translate(-26.07 -1.29)"/><path class="cls-14" d="M42.07,20l-4.34,3.66A7.4,7.4,0,0,1,42.07,20Z" transform="translate(-26.07 -1.29)"/><path class="cls-15" d="M71.09,12l-.25-.78a1.48,1.48,0,0,0,.21-.3c.38-.92.8-1.16,2-1.17h0l.19.09a.12.12,0,0,1,.08,0l.09.08v0l0,.39L73,10.4l-.86.09c-.39,0-.85-.05-1,.52l-.07.43.08.52Z" transform="translate(-26.07 -1.29)"/><path class="cls-10" d="M65.92,6.13a.77.77,0,0,1-.69-.71.77.77,0,0,1,.7-.64.82.82,0,0,1,.72.64A.77.77,0,0,1,65.92,6.13Z" transform="translate(-26.07 -1.29)"/><path class="cls-14" d="M41.27,19.31a4.15,4.15,0,0,1,3.89-1.45c-.66.21-1.26.37-1.84.59s-1.18.52-1.77.78a1.43,1.43,0,0,1-.28.07Z" transform="translate(-26.07 -1.29)"/><path class="cls-16" d="M33.49,31.75c.36-.23.71-.47,1.08-.68,1.14-.65,2.29-1.28,3.43-1.92l.18-.08.15.17a1.73,1.73,0,0,0-.32.11L33.94,31.6a3.39,3.39,0,0,1-.45.15Z" transform="translate(-26.07 -1.29)"/><path class="cls-14" d="M51.56,41.76,50,41.93c-.08,0-.25-.07-.24-.11a.42.42,0,0,1,.11-.29.43.43,0,0,1,.31-.13c.49,0,1,.1,1.45.15Z" transform="translate(-26.07 -1.29)"/><path class="cls-14" d="M46.47,20.77c-.28.6-.17,1.39-.9,1.75C45.81,21.9,45.69,21.11,46.47,20.77Z" transform="translate(-26.07 -1.29)"/><path class="cls-10" d="M47.52,21.22c.08-.91.52-1.32,1.25-1.34Z" transform="translate(-26.07 -1.29)"/><path class="cls-14" d="M47.35,20.38a1.89,1.89,0,0,1-.8,1.55C46.45,21.32,46.87,20.48,47.35,20.38Z" transform="translate(-26.07 -1.29)"/><path class="cls-3" d="M39.36,26.3c.54-.28,1.06-.56,1.6-.83s1-.48,1.52-.72l.09.17-1,.44-2.19.95Z" transform="translate(-26.07 -1.29)"/><path class="cls-17" d="M43,24.42c.41-.08.83-.15,1.24-.24.25-.06.27.06.23.25l-.14.06a7.79,7.79,0,0,1-.94.28,2.28,2.28,0,0,1-.56-.1Z" transform="translate(-26.07 -1.29)"/><path class="cls-18" d="M73.68,12.39c-.32.15-.64.3-1,.43a2,2,0,0,1-.49.08l-.36-.14a.09.09,0,0,1,0,0Z" transform="translate(-26.07 -1.29)"/><path class="cls-4" d="M73.08,9.71c-1.23,0-1.65.25-2,1.17a1.48,1.48,0,0,1-.21.3,1.62,1.62,0,0,1,1.64-1.56h.43Z" transform="translate(-26.07 -1.29)"/><path class="cls-11" d="M42.82,24.67a2.28,2.28,0,0,0,.56.1,7.79,7.79,0,0,0,.94-.28,6.58,6.58,0,0,1-1,.55c-.2.06-.47-.08-.7-.12l-.09-.17Z" transform="translate(-26.07 -1.29)"/><path class="cls-19" d="M71.09,12H72l.2,0v.16c-.1.2-.55.21-.32.58a.09.09,0,0,0,0,0l-.71-.64Z" transform="translate(-26.07 -1.29)"/><path class="cls-16" d="M64.26,41.82l-.8-.08C63.64,41.38,63.81,41.39,64.26,41.82Z" transform="translate(-26.07 -1.29)"/><path class="cls-3" d="M56.14,15.42l-.1-.09c.18-.26.35-.53.52-.79v0Z" transform="translate(-26.07 -1.29)"/><path class="cls-3" d="M56.82,14l-.25.61v0l.27-.59Z" transform="translate(-26.07 -1.29)"/><path class="cls-16" d="M33.49,31.75l-.14.13-.05-.06.19-.07Z" transform="translate(-26.07 -1.29)"/><path d="M59.8,26l-.06,0s0,0,0-.08l0,0Z" transform="translate(-26.07 -1.29)"/><path class="cls-4" d="M73.26,9.79l-.19-.09Z" transform="translate(-26.07 -1.29)"/><path class="cls-3" d="M56.83,14l0-.07,0,.07Z" transform="translate(-26.07 -1.29)"/><polygon class="cls-10" points="18.83 15.6 18.81 15.62 18.83 15.59 18.83 15.6"/><polygon points="5.09 33.14 5.1 33.12 5.08 33.14 5.09 33.14"/><polygon points="5.08 33.14 5.07 33.16 5.09 33.14 5.08 33.14"/><path d="M30.89,34.6s0,0,0,0h0l0,0Z" transform="translate(-26.07 -1.29)"/><polygon class="cls-14" points="15.2 18.01 15.18 18.03 15.2 18.02 15.2 18.01"/><path class="cls-4" d="M73.43,9.89l-.09-.08Z" transform="translate(-26.07 -1.29)"/><path d="M59.58,26.29l0,0s0,0,0,0,0,0,0,0Z" transform="translate(-26.07 -1.29)"/><polygon class="cls-13" points="20.38 11.1 20.36 11.12 20.39 11.1 20.38 11.1"/><path class="cls-8" d="M71.85,12.71c-.23-.37.22-.38.32-.58.32-.08.69.09,1-.18l.79.09-.26.35Z" transform="translate(-26.07 -1.29)"/><path class="cls-20" d="M72.17,12,72,12c0-.2,0-.4.07-.6V11h.32l.46.15.07-.31.1-.18.26.28c0,.22,0,.45,0,.68h-.28l-.5-.24-.14.4Z" transform="translate(-26.07 -1.29)"/><path class="cls-5" d="M72.94,11.62h.28l-.07.33c-.29.27-.66.1-1,.18V12l.13-.19Z" transform="translate(-26.07 -1.29)"/><path class="cls-5" d="M73,10.66l-.1.18-.53.16h-.24v-.52L73,10.4Z" transform="translate(-26.07 -1.29)"/><path class="cls-2" d="M72,11.35c0,.2-.05.4-.07.6h-.79c0-.17-.05-.34-.08-.52Z" transform="translate(-26.07 -1.29)"/><path class="cls-19" d="M72,11.35l-.94.09c0-.14.05-.29.07-.43h.88Z" transform="translate(-26.07 -1.29)"/><path class="cls-4" d="M72.05,11h-.88c.11-.57.57-.48,1-.52V11Z" transform="translate(-26.07 -1.29)"/><path class="cls-2" d="M72.94,11.62l-.64.16.14-.4Z" transform="translate(-26.07 -1.29)"/><path class="cls-8" d="M72.37,11l.53-.16-.07.31Z" transform="translate(-26.07 -1.29)"/></svg>