<svg id="Layer_1" data-name="Layer 1" xmlns="http://www.w3.org/2000/svg" viewBox="0 0 213.38 33"><defs><style>.cls-1{fill:#c4cbf5;}</style></defs><path class="cls-1" d="M-28.79,29.66c-.06,1.59.43,2.07,1.72,2,2.1-.1,4.2,0,6.57,0V46h7.93V22h-16.2C-28.77,24.65-28.7,27.16-28.79,29.66Z" transform="translate(28.8 -21)"/><path class="cls-1" d="M118,28.6c-3.31-.44-3.4-.42-4.3,1.08-3.39-2.54-6.7-2-9.08,1.27A11.15,11.15,0,0,0,104.53,43c2.43,3.54,5.43,4,9.18,1.39.27,2.15-.1,3.62-1.34,4.5-2.49,1.76-4.71.4-7-1.23-.72,1.2-1.38,2.31-2,3.4,2.86,2.94,7.65,3.78,10.86,2s3.89-5.48,3.87-9.39c0-4.2,0-8.4,0-12.59C118.07,30.22,118,29.39,118,28.6Zm-7.18,12.92c-2.18.06-3.82-1.82-3.86-4.42s1.54-4.61,3.67-4.66,3.83,1.89,3.88,4.44S112.94,41.46,110.79,41.52Z" transform="translate(28.8 -21)"/><path class="cls-1" d="M182.88,28.39c-1.91-.39-2.85.5-3.23,2.82-.44,2.62-1.23,5.15-1.86,7.72l-.39,0c-.68-2.56-1.32-5.14-2-7.68-.37-1.31-.27-2.91-2.22-2.92s-1.91,1.44-2.27,2.81q-1,3.84-2.05,7.68A42,42,0,0,1,166.7,32c-.92-3.71-.92-3.71-4.12-3.56a5.08,5.08,0,0,0-.93.24c1.46,5.36,3,10.59,4.27,15.89.48,1.92,1.54,1.53,2.62,1.62s2-.07,2.36-1.72c.56-2.58,1.33-5.09,2.2-8.34.81,3,1.45,5.16,2,7.4.39,1.58.71,2.8,2.57,2.75s2.43-.72,2.88-2.62c.9-3.8,2-7.54,3-11.3.33-1.23.63-2.47,1-3.94A10.38,10.38,0,0,1,182.88,28.39Z" transform="translate(28.8 -21)"/><path class="cls-1" d="M9.34,21.88c-2.24.07-5-.74-6.58.5S.86,26.89.05,29.3c-1.86,5.48-3.68,11-5.65,16.86,2.81,0,5.2-.09,7.58,0,1.4.08,2.11-.44,2.63-2.06,2.16-6.71,4.45-13.37,6.69-20.05.21-.63.36-1.3.6-2.21C10.91,21.87,10.13,21.85,9.34,21.88Z" transform="translate(28.8 -21)"/><path class="cls-1" d="M73.22,29.77c-4.08-2.58-7.19-2-9.44,1.33A11.61,11.61,0,0,0,64,43.81c2.35,3.15,5.41,3.55,8,1.71l5.16.77V22h-4ZM69.81,42.13C67.57,42.07,66.06,40,66.16,37s1.71-4.7,3.9-4.58,3.62,2.15,3.56,5S72,42.19,69.81,42.13Z" transform="translate(28.8 -21)"/><path class="cls-1" d="M132.58,25.18c-1.17,4.42-2.72,8.7-4.32,13.69-2-5.55-3.74-10.42-5.55-15.25-.25-.69-.83-1.55-1.36-1.66a20.43,20.43,0,0,0-4-.08c2.84,7.82,5.6,15.17,8.17,22.61.69,2,1.85,1.56,3.06,1.69s1.88-.45,2.34-1.85c2.21-6.79,4.52-13.53,6.78-20.29.21-.63.34-1.29.54-2.05a10.91,10.91,0,0,1-1.4-.12C134.53,21.31,133.31,22.4,132.58,25.18Z" transform="translate(28.8 -21)"/><path class="cls-1" d="M46.38,30.73a11.48,11.48,0,0,0-.18,12.86c2.35,3.36,5.41,3.8,9,2l4.23.74V28.14l-5,1C51.86,27.19,48.77,27.57,46.38,30.73ZM56,37.4c0,2.81-1.61,4.77-3.79,4.73s-3.72-2.06-3.72-4.85,1.56-4.8,3.73-4.84S56,34.45,56,37.4Z" transform="translate(28.8 -21)"/><path class="cls-1" d="M156.69,28.34c-4-1.44-8.12.74-9.66,5.08-1.59,4.5-.13,9.76,3.31,11.93a7.63,7.63,0,0,0,10.75-2.94L158.35,40c-3.46,3.14-6.78,2.6-7.85-1.55h10.84C162.16,33.59,160.28,29.64,156.69,28.34Zm-6,6.51c.62-2.3,2-2.92,3.6-2.91s2.62.86,3.23,2.91Z" transform="translate(28.8 -21)"/><path class="cls-1" d="M92.07,28.75c-.33.17-.71.42-1,.36-1.33-.25-2.65-.61-4.1-1V46h4v-3c0-2.45,0-4.92.1-7.36.11-1.94,1-3.33,2.77-3.35s2.3,1.57,2.47,3.33c.1.94.06,1.9.07,2.85v7.64h4c0-3.92.08-7.56,0-11.19C100.16,29.31,96.36,26.55,92.07,28.75Z" transform="translate(28.8 -21)"/><path class="cls-1" d="M20.37,26.76h5.28V46H29.8V26.69H35V22H20.37Z" transform="translate(28.8 -21)"/><path class="cls-1" d="M39.39,30.38c-.14-.68-.25-1.27-.38-1.88H35.27V46h4c0-3-.07-5.85,0-8.68.1-3.19,1.06-4.21,3.69-4.21a6.86,6.86,0,0,0,.91-.12C44.55,26.69,42.12,28.17,39.39,30.38Z" transform="translate(28.8 -21)"/><path class="cls-1" d="M80.11,46H84V28.5H80.11Z" transform="translate(28.8 -21)"/><path class="cls-1" d="M140,46h3.77V28.51H140Z" transform="translate(28.8 -21)"/><path class="cls-1" d="M-1.59,26.83c0-2.65-1.77-4.89-4-4.93s-4.09,2.16-4.12,4.79,1.78,4.89,4,4.93S-1.62,29.5-1.59,26.83Z" transform="translate(28.8 -21)"/><path class="cls-1" d="M82.12,21.09a2.64,2.64,0,0,0-2.48,3,2.49,2.49,0,1,0,4.94-.21A2.52,2.52,0,0,0,82.12,21.09Z" transform="translate(28.8 -21)"/><path class="cls-1" d="M141.85,21a2.65,2.65,0,0,0-2.45,2.8A2.58,2.58,0,0,0,142,26.69c1.46-.12,2.38-1.07,2.36-2.86A2.59,2.59,0,0,0,141.85,21Z" transform="translate(28.8 -21)"/></svg>